# xmcd CD database file
#
# Track frame offsets:
#	150
#	3396
#	24769
#	61289
#	80874
#	108269
#	152270
#	176966
#	200276
#	218015
#	225116
#
# Disc length: 3049 seconds
#
# Revision: 0
# Processed by: cddbd v1.5.2PL0 Copyright (c) Steve Scherf et al.
# Submitted via: CDex 1.70beta2
#
DISCID=790be70b
DTITLE=Thomas Putensen - Der Brief
DYEAR=1999
DGENRE=Jazz
TTITLE0=Vorspiel
TTITLE1=Der Brief
TTITLE2=Die Ruine am Meer
TTITLE3=Abends oder Sommer '97
TTITLE4=Antje geht nach London
TTITLE5=Regen über Mühlenkamp
TTITLE6=Jorrinde
TTITLE7=Die Flötenspielerin
TTITLE8=Johann's Ponnyritt
TTITLE9=Der Onkel
TTITLE10=Nachspiel
EXTD=YEAR: 1999
EXTT0=
EXTT1=
EXTT2=
EXTT3=
EXTT4=
EXTT5=
EXTT6=
EXTT7=
EXTT8=
EXTT9=
EXTT10=
PLAYORDER=
